<svg xmlns="http://www.w3.org/2000/svg" width="120" height="120" viewBox="0 0 120 120" fill="none">
    <circle cx="60" cy="60" r="58" stroke="#333" stroke-width="4" fill="#333"/>
    <path fill="white"
          d="M60 15C36.2 15 17 34.2 17 58c0 19 12.3 35.1 29.4 40.8 2.2.4 3-1 3-2.2v-8c-12 2.6-14.5-5.7-14.5-5.7-2-5-4.9-6.4-4.9-6.4-4-2.7.3-2.7.3-2.7 4.4.3 6.8 4.6 6.8 4.6 4 6.7 10.4 4.7 13 3.6.4-3 1.6-4.7 2.9-5.8-9.6-1.1-19.8-4.8-19.8-21.5 0-4.7 1.7-8.5 4.6-11.5-.5-1.1-2-5.4.4-11.2 0 0 3.7-1.2 12.2 4.6a42.5 42.5 0 0 1 22 0c8.5-5.8 12.2-4.6 12.2-4.6 2.4 5.8.9 10.1.4 11.2 2.9 3 4.6 6.8 4.6 11.5 0 16.7-10.2 20.4-19.9 21.5 1.7 1.5 3.1 4.4 3.1 8.9v13.2c0 1.2.8 2.6 3 2.2A43 43 0 0 0 103 58c0-23.8-19.2-43-43-43z"/>
</svg>
